<?xml version="1.0" encoding="UTF-8" standalone="no"?>
<!DOCTYPE svg PUBLIC "-//W3C//DTD SVG 1.1//EN" "http://www.w3.org/Graphics/SVG/1.1/DTD/svg11.dtd">
<svg xmlns="http://www.w3.org/2000/svg" version="1.1" viewBox="0.00 0.00 1280.00 250.00">
<path fill="#c18fff" d="
  M 567.02 6.86
  L 607.98 6.79
  A 2.04 2.04 0.0 0 1 609.96 9.33
  L 602.20 40.00
  A 2.04 2.04 0.0 0 1 600.22 41.54
  L 559.35 41.62
  A 2.04 2.04 0.0 0 1 557.37 39.08
  L 565.04 8.40
  A 2.04 2.04 0.0 0 1 567.02 6.86
  Z"
/>
<path fill="#c18fff" d="
  M 586.59 103.28
  Q 585.96 105.82 587.17 103.50
  Q 589.66 98.74 593.15 94.13
  Q 614.18 66.42 645.79 55.40
  Q 661.91 49.78 680.18 51.13
  C 701.17 52.69 720.78 65.09 728.89 84.90
  Q 732.54 93.84 733.67 104.05
  Q 733.70 104.27 733.92 104.28
  L 734.17 104.28
  Q 734.26 104.28 734.26 104.19
  Q 734.33 102.32 734.75 100.60
  Q 740.13 78.42 745.97 55.29
  A 3.15 3.15 0.0 0 1 749.01 52.91
  Q 770.01 52.83 788.82 52.90
  Q 791.47 52.91 790.94 55.46
  Q 790.51 57.50 789.91 59.77
  A 0.68 0.68 0.0 0 0 790.67 60.61
  Q 791.48 60.49 792.18 60.06
  Q 800.67 54.93 810.78 52.40
  Q 819.64 50.18 828.97 51.26
  C 839.18 52.43 852.42 57.93 858.88 66.78
  Q 869.79 81.72 866.16 100.51
  Q 865.77 102.56 866.81 100.75
  Q 868.52 97.77 870.57 95.02
  Q 893.08 64.84 927.16 54.39
  Q 942.97 49.54 960.21 51.35
  Q 970.09 52.38 979.35 56.68
  Q 1004.18 68.19 1010.51 96.48
  C 1011.12 99.19 1011.24 101.88 1011.54 104.59
  A 0.07 0.07 0.0 0 0 1011.68 104.60
  L 1035.46 9.00
  A 2.88 2.87 6.9 0 1 1038.25 6.82
  L 1078.47 6.81
  A 2.05 2.04 4.9 0 1 1080.49 9.20
  Q 1080.46 9.41 1080.40 9.63
  Q 1069.65 53.14 1058.92 96.64
  Q 1058.73 97.44 1058.76 98.18
  A 1.28 1.28 0.0 0 0 1060.35 99.36
  Q 1062.05 98.94 1063.17 97.50
  Q 1079.33 76.81 1096.95 54.23
  A 3.53 3.51 -70.8 0 1 1099.72 52.88
  L 1146.27 52.88
  A 1.78 1.78 0.0 0 1 1148.04 54.45
  Q 1148.20 55.74 1147.33 56.77
  Q 1118.61 90.73 1090.00 124.55
  A 4.13 4.11 -34.6 0 0 1089.26 128.54
  Q 1100.18 159.91 1111.69 192.75
  C 1112.21 194.21 1113.20 196.43 1112.41 197.82
  Q 1111.48 199.46 1109.50 199.46
  Q 1086.53 199.55 1063.30 199.47
  Q 1061.48 199.47 1060.99 197.72
  L 1048.72 154.53
  A 1.81 1.81 0.0 0 0 1045.82 153.64
  Q 1044.30 154.90 1043.80 157.01
  Q 1039.48 175.06 1033.88 197.24
  Q 1033.30 199.50 1030.97 199.50
  L 990.06 199.49
  Q 989.00 199.49 988.75 198.45
  Q 988.58 197.72 988.75 197.06
  Q 995.28 170.61 1002.03 143.63
  Q 1002.17 143.07 1001.59 143.07
  Q 951.63 143.10 900.64 143.08
  C 898.46 143.08 896.93 145.10 897.74 147.22
  C 903.32 161.63 918.38 166.74 932.53 162.74
  Q 944.06 159.48 953.32 150.47
  C 954.41 149.41 955.81 149.41 957.22 149.67
  Q 975.30 152.93 993.26 156.32
  A 1.53 1.53 0.0 0 1 994.50 157.88
  Q 994.44 159.19 993.70 160.24
  C 979.43 180.58 956.74 195.92 933.15 201.68
  C 902.00 209.28 868.58 199.08 856.61 167.29
  C 855.22 163.60 854.60 159.74 853.56 155.98
  Q 853.15 154.52 852.94 156.03
  Q 852.79 157.17 852.56 158.19
  Q 848.51 176.16 842.89 197.32
  A 2.94 2.93 7.4 0 1 840.05 199.50
  L 796.76 199.50
  A 1.77 1.75 -83.0 0 1 795.06 197.31
  Q 805.67 154.71 815.66 114.17
  C 817.53 106.62 818.96 94.18 808.06 92.40
  Q 802.84 91.55 797.04 92.71
  C 785.81 94.97 782.07 102.91 779.58 112.84
  Q 769.35 153.61 758.67 197.00
  Q 758.05 199.51 755.47 199.51
  L 712.02 199.49
  Q 710.93 199.48 710.72 198.42
  Q 710.59 197.77 710.75 197.13
  Q 717.40 170.62 724.03 143.40
  A 0.26 0.25 -82.8 0 0 723.79 143.08
  Q 674.02 143.06 624.15 143.09
  Q 622.67 143.09 621.16 143.33
  Q 620.66 143.41 620.33 143.80
  Q 618.77 145.64 620.10 148.44
  Q 624.61 157.92 633.33 161.65
  C 647.70 167.80 663.83 161.31 674.81 151.02
  C 676.81 149.15 678.82 149.60 681.18 150.03
  Q 697.93 153.05 715.41 156.35
  A 1.31 1.30 1.0 0 1 716.46 157.43
  Q 716.70 158.97 715.54 160.58
  C 693.89 190.67 653.18 211.64 615.94 201.52
  C 596.34 196.19 581.84 180.97 576.87 161.61
  C 575.90 157.82 575.61 154.01 575.08 150.29
  A 0.07 0.07 0.0 0 0 574.94 150.28
  L 563.31 197.29
  A 2.92 2.91 7.0 0 1 560.48 199.50
  L 519.49 199.49
  A 1.37 1.37 0.0 0 1 518.15 197.82
  Q 519.73 191.04 521.60 183.84
  Q 521.64 183.68 521.48 183.62
  L 521.48 183.62
  Q 521.31 183.57 521.26 183.73
  Q 518.59 190.93 515.37 198.64
  A 3.35 3.34 -80.8 0 1 512.55 200.68
  Q 498.52 201.80 489.29 201.76
  Q 476.41 201.70 467.45 195.09
  C 458.32 188.36 458.03 175.98 460.66 165.24
  Q 469.75 128.23 478.21 94.41
  A 1.73 1.73 0.0 0 0 476.53 92.25
  L 461.13 92.24
  A 1.38 1.38 0.0 0 1 459.77 90.61
  L 460.18 88.39
  Q 460.30 87.76 459.67 87.88
  L 422.98 95.04
  A 1.42 1.42 0.0 0 1 421.32 93.94
  Q 419.96 87.49 412.98 87.28
  Q 407.52 87.12 403.24 91.79
  C 397.82 97.69 407.83 104.12 412.18 106.28
  Q 421.17 110.75 430.10 114.49
  Q 434.73 116.44 439.14 119.69
  C 451.92 129.12 456.96 142.20 451.68 157.39
  C 438.61 195.04 393.53 209.44 358.18 198.05
  Q 350.86 195.69 345.80 191.80
  C 339.05 186.61 334.51 177.48 332.96 169.20
  Q 332.31 165.75 335.87 165.02
  Q 356.84 160.68 377.26 156.56
  A 1.78 1.77 72.3 0 1 379.23 157.58
  C 383.55 167.43 401.94 166.54 402.87 154.75
  C 403.19 150.67 398.71 147.33 395.49 145.54
  Q 382.52 138.34 371.16 132.03
  Q 364.65 128.42 358.63 121.38
  C 341.37 101.20 360.97 73.34 378.84 62.51
  Q 402.43 48.22 428.98 51.48
  C 442.30 53.11 456.85 58.74 464.10 70.78
  Q 464.47 71.38 464.64 70.70
  L 468.47 55.26
  Q 469.06 52.90 471.48 52.90
  L 486.03 52.86
  A 3.23 3.22 -83.0 0 0 489.16 50.41
  L 499.12 10.73
  Q 499.73 8.29 502.25 8.29
  L 542.26 8.30
  Q 545.05 8.30 544.38 11.01
  L 534.43 50.97
  A 1.41 1.41 0.0 0 0 535.14 52.56
  Q 535.89 52.94 536.79 52.93
  Q 544.40 52.79 551.32 52.97
  A 1.44 1.42 -87.3 0 1 552.71 54.51
  Q 552.64 55.58 552.40 56.59
  Q 548.72 72.24 544.33 89.52
  A 3.62 3.61 7.1 0 1 540.82 92.24
  L 526.51 92.24
  A 2.95 2.94 7.2 0 0 523.66 94.44
  Q 516.73 120.78 510.27 147.44
  C 508.97 152.78 508.62 159.55 515.60 160.96
  Q 520.74 161.99 526.46 161.56
  Q 527.03 161.52 527.17 160.97
  L 553.47 55.28
  A 3.11 3.11 0.0 0 1 556.46 52.92
  Q 575.93 52.82 594.79 52.89
  Q 595.95 52.90 597.08 53.05
  A 1.76 1.75 -79.2 0 1 598.54 55.21
  L 586.59 103.28
  Z
  M 669.21 89.09
  Q 651.55 87.94 637.85 98.97
  C 635.64 100.75 630.93 105.66 630.82 108.99
  Q 630.76 110.72 632.49 110.73
  Q 659.50 110.81 687.22 110.76
  C 690.31 110.75 691.42 108.18 690.96 105.34
  C 689.21 94.54 679.17 89.74 669.21 89.09
  Z
  M 948.85 89.29
  Q 929.17 87.26 914.40 100.31
  C 912.87 101.66 908.56 106.65 908.78 109.18
  A 1.73 1.72 87.4 0 0 910.49 110.76
  Q 936.27 110.78 964.65 110.78
  C 966.75 110.78 968.81 109.83 968.96 107.51
  C 969.66 96.42 958.32 90.27 948.85 89.29
  Z"
/>
<path fill="#c18fff" d="
  M 42.48 60.52
  A 1.12 1.09 -68.9 0 0 42.85 60.35
  Q 50.71 54.84 60.16 52.38
  C 72.60 49.14 86.33 51.45 97.87 57.32
  C 103.64 60.26 109.23 63.76 113.39 68.68
  A 2.10 2.09 48.3 0 0 116.41 68.86
  C 119.36 66.11 121.89 63.05 125.24 60.72
  Q 135.99 53.24 148.57 51.45
  Q 166.48 48.90 184.97 59.19
  C 198.04 66.46 208.07 80.64 210.26 94.97
  Q 211.63 103.96 211.65 114.50
  Q 211.70 155.95 211.66 197.62
  A 1.67 1.67 0.0 0 1 210.37 199.23
  Q 209.26 199.49 208.14 199.49
  Q 187.02 199.52 165.71 199.48
  A 1.91 1.91 0.0 0 1 163.80 197.56
  Q 163.82 153.74 163.75 113.88
  C 163.73 104.27 160.72 93.43 149.50 92.24
  C 142.04 91.44 131.55 92.95 128.90 101.20
  Q 127.03 107.03 127.03 113.64
  Q 127.05 154.98 127.02 197.50
  A 1.96 1.96 0.0 0 1 125.07 199.46
  Q 106.41 199.53 88.05 199.49
  Q 84.77 199.48 81.66 199.17
  Q 80.44 199.06 80.43 197.83
  Q 80.17 157.50 80.25 114.79
  C 80.27 104.44 77.80 93.41 65.45 92.18
  C 57.03 91.34 46.98 93.53 44.87 103.17
  Q 43.74 108.32 43.74 113.48
  Q 43.78 154.67 43.73 197.07
  Q 43.72 199.50 41.29 199.50
  L 2.25 199.50
  Q 1.75 199.50 1.75 199.00
  L 1.75 53.43
  Q 1.75 52.86 2.32 52.86
  L 38.51 52.89
  A 2.47 2.47 0.0 0 1 40.98 55.22
  Q 41.09 57.29 40.95 59.64
  Q 40.93 59.97 41.11 60.24
  Q 41.49 60.81 42.48 60.52
  Z"
/>
<path fill="#c18fff" d="
  M 1261.8778 70.7147
  A 86.76 67.79 -40.9 0 1 1240.6849 178.7593
  A 86.76 67.79 -40.9 0 1 1130.7222 184.3253
  A 86.76 67.79 -40.9 0 1 1151.9151 76.2807
  A 86.76 67.79 -40.9 0 1 1261.8778 70.7147
  Z
  M 1225.1947 103.0127
  A 37.89 29.63 -40.4 0 0 1177.1362 105.0056
  A 37.89 29.63 -40.4 0 0 1167.4853 152.1273
  A 37.89 29.63 -40.4 0 0 1215.5438 150.1344
  A 37.89 29.63 -40.4 0 0 1225.1947 103.0127
  Z"
/>
<path fill="#c18fff" d="
  M 279.68 128.21
  Q 281.92 128.84 283.27 126.53
  Q 304.45 90.42 325.54 54.44
  A 3.19 3.17 15.1 0 1 328.29 52.87
  L 370.74 52.89
  A 1.79 1.78 -87.9 0 1 372.51 54.80
  Q 372.44 55.86 371.89 56.77
  Q 336.55 114.99 301.53 172.76
  Q 278.98 209.95 258.81 244.51
  Q 257.48 246.80 255.33 246.79
  Q 236.81 246.77 210.95 246.77
  Q 210.13 246.77 209.35 246.29
  A 1.27 1.27 0.0 0 1 208.85 244.65
  Q 210.46 241.30 212.57 237.70
  Q 226.49 213.91 239.63 191.08
  A 3.82 3.77 56.9 0 0 240.11 188.73
  Q 232.22 120.11 225.03 56.44
  C 224.72 53.67 227.01 52.83 229.26 52.83
  Q 248.80 52.89 267.92 52.89
  Q 269.76 52.89 269.98 54.72
  L 278.66 127.01
  A 1.42 1.42 0.0 0 0 279.68 128.21
  Z"
/>
</svg>
