<?xml version="1.0" standalone="no"?>
<!DOCTYPE svg PUBLIC "-//W3C//DTD SVG 20010904//EN"
 "http://www.w3.org/TR/2001/REC-SVG-20010904/DTD/svg10.dtd">
<svg version="1.0" xmlns="http://www.w3.org/2000/svg"
 width="128.000000pt" height="128.000000pt" viewBox="0 0 128.000000 128.000000"
 preserveAspectRatio="xMidYMid meet">
<metadata>
Created by potrace 1.14, written by Peter Selinger 2001-2017
</metadata>
<g transform="translate(0.000000,128.000000) scale(0.100000,-0.100000)"
fill="#000000" stroke="none">
<path d="M516 1119 c-74 -11 -171 -56 -223 -103 -22 -20 -43 -36 -47 -36 -3 0
-31 20 -62 45 -69 56 -91 58 -100 8 -6 -32 19 -229 30 -240 2 -3 18 3 36 12
64 33 180 55 291 55 123 0 220 -16 345 -58 l89 -30 -34 28 -34 29 22 28 c12
15 36 47 52 71 30 43 104 98 148 109 35 9 43 -13 37 -100 -5 -69 -18 -114 -62
-214 -3 -6 4 -14 14 -18 11 -3 32 -15 46 -26 21 -17 26 -29 27 -67 1 -59 22
-118 40 -114 8 2 29 4 47 4 l34 0 -7 45 c-12 83 -46 197 -81 273 -32 68 -34
81 -29 135 12 108 -13 133 -102 101 -38 -13 -44 -13 -89 10 -98 47 -269 71
-388 53z"/>
<path d="M273 695 c-29 -20 -46 -75 -34 -107 10 -27 29 -38 63 -38 18 0 17 -3
-11 -35 -34 -39 -42 -93 -18 -114 19 -15 27 -4 20 30 -4 22 2 36 30 70 59 68
70 170 23 201 -18 12 -50 9 -73 -7z"/>
<path d="M655 638 c-56 -49 -33 -148 35 -148 64 0 104 100 60 148 -27 28 -62
28 -95 0z"/>
<path d="M355 476 c-18 -13 -18 -14 1 -47 26 -44 61 -49 102 -14 38 32 33 51
-16 65 -49 13 -65 13 -87 -4z"/>
<path d="M244 366 c-7 -19 45 -128 63 -134 6 -2 29 12 50 32 l39 35 28 -45
c17 -27 35 -44 47 -44 20 0 119 85 119 101 0 19 -38 8 -61 -17 -47 -50 -56
-50 -90 6 -17 27 -37 50 -44 50 -8 0 -26 -16 -41 -35 -15 -20 -32 -34 -38 -32
-6 2 -18 23 -27 47 -18 47 -35 61 -45 36z"/>
</g>
</svg>
